<?xml version="1.0" encoding="utf-8"?>
<!-- Generator: Adobe Illustrator 15.1.0, SVG Export Plug-In . SVG Version: 6.00 Build 0)  -->
<!DOCTYPE svg PUBLIC "-//W3C//DTD SVG 1.0//EN" "http://www.w3.org/TR/2001/REC-SVG-20010904/DTD/svg10.dtd">
<svg version="1.0" id="Layer_1" xmlns="http://www.w3.org/2000/svg" xmlns:xlink="http://www.w3.org/1999/xlink" x="0px" y="0px"
	 width="16px" height="16px" viewBox="0 0 16 16" enable-background="new 0 0 16 16" xml:space="preserve">
<g>
	<polygon fill="#FFFFFF" stroke="#000000" stroke-width="1.5" stroke-miterlimit="10" points="9.854,6.852 9.172,6.17 5.463,9.88 
		4.573,8.991 3.667,12.372 7.049,11.466 6.145,10.562 	"/>
	<polygon fill="#FFFFFF" stroke="#000000" stroke-width="1.5" stroke-miterlimit="10" points="7.195,4.556 6.542,3.906 3.02,7.427 
		2.115,6.523 1.209,9.903 4.591,8.997 3.673,8.079 	"/>
	<polygon fill="#FFFFFF" stroke="#000000" stroke-width="1.5" stroke-miterlimit="10" points="12.653,9.026 11.922,8.297 
		7.903,12.315 7.038,11.452 6.132,14.833 9.514,13.927 8.634,13.046 	"/>
	<circle fill="#FFE512" stroke="#000000" stroke-width="1.5" stroke-miterlimit="10" cx="10.778" cy="5.244" r="4.388"/>
</g>
<g>
	<polygon fill="#FFFFFF" points="9.854,6.853 9.172,6.171 5.463,9.88 4.573,8.989 3.667,12.372 7.049,11.466 6.145,10.56 	"/>
	<polygon fill="#FFFFFF" points="7.195,4.556 6.542,3.905 3.02,7.427 2.115,6.522 1.209,9.903 4.591,8.997 3.673,8.079 	"/>
	<polygon fill="#FFFFFF" points="12.653,9.026 11.922,8.297 7.903,12.315 7.038,11.45 6.132,14.833 9.514,13.925 8.634,13.046 	"/>
	<radialGradient id="SVGID_1_" cx="10.7773" cy="5.1279" r="4.669" gradientUnits="userSpaceOnUse">
		<stop  offset="0" style="stop-color:#FFE512"/>
		<stop  offset="1" style="stop-color:#EAAD00"/>
	</radialGradient>
	<circle fill="url(#SVGID_1_)" stroke="#333333" stroke-width="0.25" stroke-miterlimit="10" cx="10.778" cy="5.244" r="4.388"/>
</g>
</svg>
