<?xml version="1.0" encoding="utf-8"?>
<!-- Generator: Adobe Illustrator 15.1.0, SVG Export Plug-In . SVG Version: 6.00 Build 0)  -->
<!DOCTYPE svg PUBLIC "-//W3C//DTD SVG 1.0//EN" "http://www.w3.org/TR/2001/REC-SVG-20010904/DTD/svg10.dtd">
<svg version="1.0" id="Layer_1" xmlns="http://www.w3.org/2000/svg" xmlns:xlink="http://www.w3.org/1999/xlink" x="0px" y="0px"
	 width="16px" height="16px" viewBox="0 0 16 16" enable-background="new 0 0 16 16" xml:space="preserve">
<g>
	<g>
		<linearGradient id="SVGID_1_" gradientUnits="userSpaceOnUse" x1="1.3735" y1="7.374" x2="12.9277" y2="7.374">
			<stop  offset="0" style="stop-color:#EAAD00"/>
			<stop  offset="1" style="stop-color:#FFE512"/>
		</linearGradient>
		<path fill="url(#SVGID_1_)" stroke="#000000" stroke-width="2" stroke-linejoin="bevel" stroke-miterlimit="10" d="M12.928,3.056
			C11.573,1.56,6.362,1.751,4.146,2.425s-1.204,1.59-1.204,1.59c-4.046,5.542,1.012,8.815,1.012,8.815s-0.85-1.707,1.372-2.723
			c1.178-0.537,3.606-0.984,7.122,0.359L12.928,3.056"/>
		<polygon fill="#FFFFFF" stroke="#000000" stroke-width="2" stroke-linejoin="bevel" stroke-miterlimit="10" points="10.567,5.096 
			9.335,5.88 9.064,5.096 8.729,7.404 10.23,8.524 9.939,7.65 11.216,6.81 		"/>
		<polygon fill="#FFFFFF" stroke="#000000" stroke-width="2" stroke-linejoin="bevel" stroke-miterlimit="10" points="
			10.504,13.869 9.855,12.895 9.506,13.213 8.868,9.74 11.035,11.365 10.557,11.938 11.071,12.857 		"/>
		<polygon fill="#FFFFFF" stroke="#000000" stroke-width="2" stroke-linejoin="bevel" stroke-miterlimit="10" points="2.771,11.551 
			3.808,12.658 4.766,11.824 5.369,12.346 5.973,9.664 2.981,10.287 3.613,10.863 		"/>
		<polygon fill="#FFFFFF" stroke="#000000" stroke-width="2" stroke-linejoin="bevel" stroke-miterlimit="10" points="2.332,4.143 
			4.004,5.58 4.379,4.707 4.957,7.36 3.191,8.146 3.393,7.36 1.676,5.964 		"/>
		<linearGradient id="SVGID_2_" gradientUnits="userSpaceOnUse" x1="15.3281" y1="6.7529" x2="10.109" y2="9.3781">
			<stop  offset="0" style="stop-color:#EAAD00"/>
			<stop  offset="1" style="stop-color:#FFE512"/>
		</linearGradient>
		<path fill="url(#SVGID_2_)" stroke="#000000" stroke-width="2" stroke-linejoin="bevel" stroke-miterlimit="10" d="M14.783,8.568
			c0.337-3.506-1.855-5.512-1.855-5.512C12.91,3.41,12.594,4.123,10.369,4.64c0,0,3.063,5.108,0,9.442
			C10.369,14.082,14.368,12.889,14.783,8.568z"/>
		<path fill="#FFF453" stroke="#000000" stroke-width="2" stroke-linejoin="bevel" stroke-miterlimit="10" d="M2.919,3.056
			c0,0-2.604,2.299-1.436,6.176c0,0-0.744-2.344,1.436-5.186C2.919,4.046,2.327,3.646,2.919,3.056z"/>
	</g>
	<g>
		<linearGradient id="SVGID_3_" gradientUnits="userSpaceOnUse" x1="1.3735" y1="7.3745" x2="12.9277" y2="7.3745">
			<stop  offset="0" style="stop-color:#EAAD00"/>
			<stop  offset="1" style="stop-color:#FFE512"/>
		</linearGradient>
		<path fill="url(#SVGID_3_)" stroke="#000000" stroke-width="0.25" stroke-miterlimit="10" d="M12.928,3.057
			c-1.354-1.496-6.565-1.305-8.781-0.631s-1.204,1.59-1.204,1.59c-4.046,5.541,1.012,8.814,1.012,8.814s-0.85-1.707,1.372-2.723
			c1.178-0.537,3.606-0.984,7.122,0.359L12.928,3.057"/>
		<polygon fill="#FFFFFF" stroke="#000000" stroke-width="0.25" stroke-miterlimit="10" points="10.567,5.096 9.335,5.88 
			9.064,5.096 8.729,7.404 10.23,8.525 9.939,7.651 11.216,6.811 		"/>
		<polygon fill="#FFFFFF" stroke="#000000" stroke-width="0.25" stroke-miterlimit="10" points="10.504,13.869 9.855,12.895 
			9.506,13.213 8.868,9.74 11.035,11.365 10.557,11.938 11.071,12.859 		"/>
		<polygon fill="#FFFFFF" stroke="#000000" stroke-width="0.25" stroke-miterlimit="10" points="2.771,11.553 3.808,12.658 
			4.766,11.824 5.369,12.346 5.973,9.664 2.981,10.289 3.613,10.865 		"/>
		<polygon fill="#FFFFFF" stroke="#000000" stroke-width="0.25" stroke-miterlimit="10" points="2.332,4.143 4.004,5.58 
			4.379,4.708 4.957,7.36 3.191,8.146 3.393,7.36 1.676,5.965 		"/>
		<linearGradient id="SVGID_4_" gradientUnits="userSpaceOnUse" x1="15.3271" y1="6.7529" x2="10.1084" y2="9.3779">
			<stop  offset="0" style="stop-color:#EAAD00"/>
			<stop  offset="1" style="stop-color:#FFE512"/>
		</linearGradient>
		<path fill="url(#SVGID_4_)" stroke="#000000" stroke-width="0.25" stroke-miterlimit="10" d="M14.783,8.568
			c0.337-3.506-1.855-5.512-1.855-5.512c-0.018,0.354-0.334,1.066-2.559,1.584c0,0,3.063,5.107,0,9.441
			C10.369,14.082,14.368,12.889,14.783,8.568z"/>
		<path fill="#FFF453" stroke="#000000" stroke-width="0.25" stroke-miterlimit="10" d="M2.919,3.057c0,0-2.604,2.299-1.436,6.176
			c0,0-0.744-2.344,1.436-5.186C2.919,4.047,2.327,3.646,2.919,3.057z"/>
	</g>
</g>
</svg>
