<?xml version="1.0" encoding="utf-8"?>
<!-- Generator: Adobe Illustrator 15.1.0, SVG Export Plug-In . SVG Version: 6.00 Build 0)  -->
<!DOCTYPE svg PUBLIC "-//W3C//DTD SVG 1.0//EN" "http://www.w3.org/TR/2001/REC-SVG-20010904/DTD/svg10.dtd">
<svg version="1.0" id="Layer_1" xmlns="http://www.w3.org/2000/svg" xmlns:xlink="http://www.w3.org/1999/xlink" x="0px" y="0px"
	 width="16px" height="16px" viewBox="0 0 16 16" enable-background="new 0 0 16 16" xml:space="preserve">
<g>
	<g>
		<path fill="#999999" stroke="#000000" stroke-width="1.7698" stroke-miterlimit="10" d="M9.424,14.346
			c0,0.24-0.29,0.438-0.646,0.438H7.132c-0.358,0-0.647-0.195-0.647-0.438v-1.205c0-0.24,0.289-0.436,0.647-0.436h1.646
			c0.356,0,0.646,0.195,0.646,0.436V14.346z"/>
		<path fill="#847250" stroke="#000000" stroke-width="1.7698" stroke-miterlimit="10" d="M10.193,9.389
			c0-0.203-0.156-0.371-0.351-0.371h-3.78c-0.192,0-0.351,0.168-0.351,0.371v4.244C5.712,13.836,5.869,14,6.062,14h3.783
			c0.191,0,0.35-0.164,0.35-0.367V9.389H10.193z"/>
		
			<radialGradient id="SVGID_1_" cx="604" cy="781.0508" r="4.9023" gradientTransform="matrix(1 0 0 1 -596 -775)" gradientUnits="userSpaceOnUse">
			<stop  offset="0" style="stop-color:#FFFFFF"/>
			<stop  offset="0.5951" style="stop-color:#FFE9BD"/>
			<stop  offset="0.8773" style="stop-color:#FFC817"/>
		</radialGradient>
		<path fill="url(#SVGID_1_)" stroke="#000000" stroke-width="1.7698" stroke-miterlimit="10" d="M3.031,6.185
			C3.031,3.44,5.256,1.217,8,1.217s4.969,2.224,4.969,4.968c0,1.957-1.13,3.647-2.773,4.459c-0.66,0.326-1.406,0.227-2.193,0.227
			c-0.825,0-1.604,0.084-2.289-0.273C4.119,9.77,3.031,8.103,3.031,6.185z"/>
	</g>
	<path fill="none" stroke="#000000" stroke-width="0.2212" stroke-miterlimit="10" d="M10.24,5.88c0-0.203-0.156-0.371-0.352-0.371
		h-3.78c-0.192,0-0.35,0.168-0.35,0.371v4.243c0,0.204,0.157,0.368,0.35,0.368h3.784c0.191,0,0.35-0.164,0.35-0.368V5.88H10.24z"/>
	<g>
		<g>
			<path fill="#666666" d="M9.471,14.346c0,0.24-0.291,0.438-0.646,0.438H7.178c-0.358,0-0.648-0.195-0.648-0.438v-1.205
				c0-0.24,0.29-0.436,0.648-0.436h1.646c0.355,0,0.646,0.195,0.646,0.436V14.346z"/>
			<path fill="#B3B3B3" stroke="#000000" stroke-width="0.2212" stroke-miterlimit="10" d="M10.24,9.389
				c0-0.203-0.156-0.371-0.352-0.371h-3.78c-0.192,0-0.35,0.168-0.35,0.371v4.244c0,0.203,0.157,0.367,0.35,0.367h3.784
				c0.191,0,0.35-0.164,0.35-0.367V9.389H10.24z"/>
			<line fill="none" stroke="#E6E6E6" stroke-width="0.4" stroke-miterlimit="10" x1="5.859" y1="13.248" x2="10.143" y2="13.248"/>
			<line fill="none" stroke="#E6E6E6" stroke-width="0.4" stroke-miterlimit="10" x1="5.859" y1="12.301" x2="10.143" y2="12.301"/>
			<line fill="none" stroke="#E6E6E6" stroke-width="0.4" stroke-miterlimit="10" x1="5.859" y1="11.354" x2="10.143" y2="11.354"/>
		</g>
		<g>
			
				<radialGradient id="SVGID_2_" cx="604.0234" cy="781.0508" r="4.9023" gradientTransform="matrix(1 0 0 1 -596 -775)" gradientUnits="userSpaceOnUse">
				<stop  offset="0" style="stop-color:#FFFFFF"/>
				<stop  offset="0.5951" style="stop-color:#FFE9BD"/>
				<stop  offset="0.8773" style="stop-color:#FFC817"/>
			</radialGradient>
			<path fill="url(#SVGID_2_)" d="M3.055,6.186c0-2.745,2.225-4.968,4.969-4.968s4.969,2.224,4.969,4.968
				c0,1.957-1.13,3.646-2.773,4.459c-0.66,0.326-1.406,0.227-2.193,0.227c-0.825,0-1.604,0.084-2.289-0.273
				C4.143,9.77,3.055,8.104,3.055,6.186z"/>
			<g>
				<polygon fill="none" stroke="#FFC817" stroke-width="0.4424" stroke-miterlimit="10" points="9.571,9.527 9.879,10.209 
					8.396,10.225 8.281,10.018 7.716,6.592 7.429,7.679 8.334,6.132 8.474,6.304 				"/>
			</g>
			
				<radialGradient id="SVGID_3_" cx="603.9766" cy="780.7178" r="4.9024" gradientTransform="matrix(1 0 0 1 -596 -775)" gradientUnits="userSpaceOnUse">
				<stop  offset="0.0982" style="stop-color:#FFFFFF"/>
				<stop  offset="0.2638" style="stop-color:#FFFFFF;stop-opacity:0"/>
				<stop  offset="0.5951" style="stop-color:#FFE9BD;stop-opacity:0.5"/>
				<stop  offset="0.8773" style="stop-color:#FFC817"/>
			</radialGradient>
			<path fill="url(#SVGID_3_)" d="M3.008,6.186c0-2.745,2.226-4.968,4.969-4.968c2.744,0,4.969,2.224,4.969,4.968
				c0,1.957-1.13,3.646-2.773,4.459c-0.662,0.326-1.405,0.227-2.193,0.227c-0.825,0-1.604,0.084-2.288-0.273
				C4.097,9.77,3.008,8.104,3.008,6.186z"/>
		</g>
	</g>
</g>
</svg>
