<?xml version="1.0" encoding="utf-8"?>
<!-- Generator: Adobe Illustrator 15.1.0, SVG Export Plug-In . SVG Version: 6.00 Build 0)  -->
<!DOCTYPE svg PUBLIC "-//W3C//DTD SVG 1.0//EN" "http://www.w3.org/TR/2001/REC-SVG-20010904/DTD/svg10.dtd">
<svg version="1.0" id="Layer_1" xmlns="http://www.w3.org/2000/svg" xmlns:xlink="http://www.w3.org/1999/xlink" x="0px" y="0px"
	 width="16px" height="16px" viewBox="0 0 16 16" enable-background="new 0 0 16 16" xml:space="preserve">
<g>
	<polygon fill="#FFFFFF" stroke="#000000" stroke-width="1.0805" stroke-miterlimit="10" points="9.258,3.261 7.993,1.071 
		6.729,3.261 7.747,3.261 7.747,6.023 8.253,6.023 8.253,3.261 	"/>
	<polygon fill="#FFFFFF" stroke="#000000" stroke-width="1.0805" stroke-miterlimit="10" points="14.913,7.965 12.724,6.701 
		12.724,7.718 9.961,7.718 9.961,8.225 12.724,8.225 12.724,9.23 	"/>
	<polygon fill="#FFFFFF" stroke="#000000" stroke-width="1.0805" stroke-miterlimit="10" points="8.266,12.695 8.266,9.934 
		7.759,9.934 7.759,12.695 6.754,12.695 8.019,14.887 9.283,12.695 	"/>
	<polygon fill="#FFFFFF" stroke="#000000" stroke-width="1.0805" stroke-miterlimit="10" points="6.051,7.73 3.289,7.73 
		3.289,6.726 1.099,7.99 3.289,9.255 3.289,8.237 6.051,8.237 	"/>
	<polygon fill="#FFFFFF" stroke="#000000" stroke-width="1.0805" stroke-miterlimit="10" points="12.793,3.177 10.351,3.832 
		11.069,4.551 9.117,6.504 9.476,6.862 11.43,4.911 12.14,5.62 	"/>
	<polygon fill="#FFFFFF" stroke="#000000" stroke-width="1.0805" stroke-miterlimit="10" points="12.807,12.765 12.152,10.323 
		11.433,11.041 9.479,9.089 9.122,9.447 11.073,11.401 10.363,12.111 	"/>
	<polygon fill="#FFFFFF" stroke="#000000" stroke-width="1.0805" stroke-miterlimit="10" points="6.896,9.452 6.536,9.094 
		4.583,11.045 3.873,10.336 3.22,12.778 5.662,12.125 4.942,11.404 	"/>
	<polygon fill="#FFFFFF" stroke="#000000" stroke-width="1.0805" stroke-miterlimit="10" points="6.891,6.508 4.938,4.555 
		5.648,3.845 3.204,3.191 3.859,5.634 4.58,4.914 6.533,6.867 	"/>
	<radialGradient id="SVGID_1_" cx="8.0059" cy="7.8828" r="3.843" gradientUnits="userSpaceOnUse">
		<stop  offset="0" style="stop-color:#FFE512"/>
		<stop  offset="1" style="stop-color:#EAAD00"/>
	</radialGradient>
	<circle fill="url(#SVGID_1_)" stroke="#000000" stroke-width="1.0805" stroke-miterlimit="10" cx="8.006" cy="7.977" r="3.612"/>
</g>
<g>
	<polygon fill="#FFFFFF" points="9.246,3.248 7.981,1.058 6.716,3.248 7.734,3.248 7.734,6.01 8.241,6.01 8.241,3.248 	"/>
	<polygon fill="#FFFFFF" points="14.899,7.953 12.712,6.687 12.712,7.705 9.948,7.705 9.948,8.212 12.712,8.212 12.712,9.217 	"/>
	<polygon fill="#FFFFFF" points="8.253,12.683 8.253,9.919 7.747,9.919 7.747,12.683 6.742,12.683 8.006,14.871 9.271,12.683 	"/>
	<polygon fill="#FFFFFF" points="6.04,7.717 3.277,7.717 3.277,6.713 1.087,7.977 3.277,9.242 3.277,8.224 6.04,8.224 	"/>
	<polygon fill="#FFFFFF" points="12.781,3.164 10.338,3.818 11.059,4.538 9.104,6.491 9.463,6.849 11.416,4.897 12.128,5.606 	"/>
	<polygon fill="#FFFFFF" points="12.795,12.753 12.141,10.309 11.421,11.03 9.468,9.076 9.108,9.435 11.062,11.388 10.353,12.099 	
		"/>
	<polygon fill="#FFFFFF" points="6.884,9.438 6.524,9.08 4.571,11.033 3.861,10.323 3.208,12.767 5.65,12.111 4.931,11.393 	"/>
	<polygon fill="#FFFFFF" points="6.879,6.495 4.926,4.542 5.636,3.832 3.192,3.178 3.846,5.621 4.567,4.901 6.52,6.853 	"/>
	<radialGradient id="SVGID_2_" cx="7.9932" cy="7.8691" r="3.843" gradientUnits="userSpaceOnUse">
		<stop  offset="0" style="stop-color:#FFE512"/>
		<stop  offset="1" style="stop-color:#EAAD00"/>
	</radialGradient>
	<circle fill="url(#SVGID_2_)" cx="7.993" cy="7.964" r="3.612"/>
</g>
</svg>
